<?xml version="1.0" encoding="UTF-8"?>
<svg width="252px" height="206px" viewBox="0 0 252 206" version="1.1" xmlns="http://www.w3.org/2000/svg" xmlns:xlink="http://www.w3.org/1999/xlink">
    <!-- Generator: Sketch 50.2 (55047) - http://www.bohemiancoding.com/sketch -->
    <title>Combined Shape</title>
    <desc>Created with Sketch.</desc>
    <defs></defs>
    <g id="Symbols" stroke="none" stroke-width="1" fill="none" fill-rule="evenodd">
        <g id="Artboard-2" transform="translate(-301.000000, -187.000000)" fill="#FFFFFF">
            <path d="M301,190.168371 L309.676578,187 L309.676578,241.074216 L362.5475,241.074216 L362.5475,250.162846 L309.676578,250.162846 L309.676578,287.360746 L301,279.555251 L301,190.168371 Z M376,345.182943 L376,240.705078 L427.087891,190 L429.899089,199.465495 L384.84375,245.003229 L384.84375,353.094401 L376,345.182943 Z M430,392.292187 L430,240.988281 C447.091257,240.988281 457.639722,240.988281 461.645396,240.988281 C467.653906,240.988281 483.477344,235.629687 483.477344,217.526562 C483.477344,199.423437 466.107812,196.060156 461.645396,196.060156 C458.670451,196.060156 452.113132,196.060156 441.973438,196.060156 L439.395843,187 C452.150809,187 459.567326,187 461.645396,187 C464.7625,187 492.357812,190.357031 492.357812,217.526562 C492.357812,244.696094 466.752344,250.417856 461.645396,250.417856 C458.240764,250.417856 450.578757,250.417856 438.659375,250.417856 L438.659375,383.585156 L430,392.292187 Z M552.859863,285.478516 L552.859863,297.579102 L496.145508,240.988281 C504.773548,240.988281 511.090406,240.988281 515.096079,240.988281 C518.074847,240.988281 523.36489,238.980886 527.865029,235.092939 C532.442178,231.138458 536.202158,225.23851 535.881836,217.526562 C535.246582,202.232422 519.558496,196.060156 515.096079,196.060156 C512.121135,196.060156 505.563815,196.060156 495.424121,196.060156 L492,187 C505.319317,187 513.01801,187 515.096079,187 C518.213184,187 544.574707,190.357031 544.574707,217.526562 C544.574707,241.259979 524.88623,248.059082 517.924029,250.111495 C517.924029,250.111495 519.035127,251.286895 521.257324,253.637695 L552.859863,285.478516 Z" id="Combined-Shape"></path>
        </g>
    </g>
</svg>