<?xml version="1.0" encoding="UTF-8"?>
<svg width="359px" height="292px" viewBox="0 0 359 292" version="1.1" xmlns="http://www.w3.org/2000/svg" xmlns:xlink="http://www.w3.org/1999/xlink">
    <!-- Generator: Sketch 50.2 (55047) - http://www.bohemiancoding.com/sketch -->
    <title>Combined Shape</title>
    <desc>Created with Sketch.</desc>
    <defs></defs>
    <g id="Symbols" stroke="none" stroke-width="1" fill="none" fill-rule="evenodd">
        <g id="Artboard-2" transform="translate(-301.000000, -187.000000)" fill="#0B559E">
            <path d="M301,191.506574 L313.341243,187 L313.341243,263.913162 L388.542883,263.913162 L388.542883,276.840492 L313.341243,276.840492 L313.341243,329.749406 L301,318.647159 L301,191.506574 Z M407.677221,411.993556 L407.677221,263.388113 L480.342743,191.267089 L484.341287,204.730458 L420.256243,269.501644 L420.256243,423.246521 L407.677221,411.993556 Z M484.48482,479 L484.48482,263.790931 C508.79479,263.790931 523.798536,263.790931 529.496058,263.790931 C538.042341,263.790931 560.549012,256.169065 560.549012,230.419851 C560.549012,204.670637 535.843234,199.886831 529.496058,199.886831 C525.264607,199.886831 515.937719,199.886831 501.515393,199.886831 L497.849118,187 C515.991309,187 526.540289,187 529.496058,187 C533.929711,187 573.180261,191.774917 573.180261,230.419851 C573.180261,269.064786 536.759991,277.203209 529.496058,277.203209 C524.653435,277.203209 513.755281,277.203209 496.801594,277.203209 L496.801594,466.615441 L484.48482,479 Z M659.236136,327.072191 L659.236136,344.283616 L578.567739,263.790931 C590.839944,263.790931 599.824808,263.790931 605.522329,263.790931 C609.759218,263.790931 617.283579,260.935686 623.68441,255.405614 C630.194778,249.780906 635.542833,241.389039 635.087219,230.419851 C634.183658,208.666032 611.869506,199.886831 605.522329,199.886831 C601.290878,199.886831 591.96399,199.886831 577.541665,199.886831 L572.671322,187 C591.616224,187 602.56656,187 605.522329,187 C609.955983,187 647.451637,191.774917 647.451637,230.419851 C647.451637,264.177384 619.447478,273.848176 609.5447,276.767452 C609.5447,276.767452 611.125085,278.439297 614.285856,281.782988 L659.236136,327.072191 Z" id="Combined-Shape"></path>
        </g>
    </g>
</svg>